<svg preserveAspectRatio="none" width="100%" height="100%" overflow="visible" style="display: block;" viewBox="0 0 52 52" fill="none" xmlns="http://www.w3.org/2000/svg">
<g id="neurology">
<mask id="mask0_0_7" style="mask-type:alpha" maskUnits="userSpaceOnUse" x="0" y="0" width="52" height="52">
<rect id="Bounding box" width="52" height="52" fill="var(--fill-0, #D9D9D9)"/>
</mask>
<g mask="url(#mask0_0_7)">
<path id="neurology_2" d="M30.875 45.5C30.4056 45.5 29.9451 45.4549 29.4938 45.3646C29.0424 45.2743 28.6 45.1389 28.1667 44.9583V7.04167C28.6 6.86111 29.0424 6.72569 29.4938 6.63542C29.9451 6.54514 30.4056 6.5 30.875 6.5C32.7528 6.5 34.3688 7.13194 35.7229 8.39583C37.0771 9.65972 37.8083 11.2125 37.9167 13.0542C40.0472 13.3431 41.8438 14.3 43.3063 15.925C44.7688 17.55 45.5 19.4639 45.5 21.6667C45.5 22.4611 45.4007 23.2194 45.2021 23.9417C45.0035 24.6639 44.7056 25.35 44.3083 26C44.7056 26.65 45.0035 27.3451 45.2021 28.0854C45.4007 28.8257 45.5 29.575 45.5 30.3333C45.5 32.5722 44.7688 34.4951 43.3063 36.1021C41.8438 37.709 40.0292 38.6569 37.8625 38.9458C37.6819 40.7514 36.9326 42.2951 35.6146 43.5771C34.2965 44.859 32.7167 45.5 30.875 45.5ZM21.125 45.5C19.2833 45.5 17.6944 44.859 16.3583 43.5771C15.0222 42.2951 14.2639 40.7514 14.0833 38.9458C11.9167 38.6569 10.1111 37.7 8.66667 36.075C7.22222 34.45 6.5 32.5361 6.5 30.3333C6.5 29.575 6.59931 28.8257 6.79792 28.0854C6.99653 27.3451 7.29444 26.65 7.69167 26C7.29444 25.35 6.99653 24.6639 6.79792 23.9417C6.59931 23.2194 6.5 22.4611 6.5 21.6667C6.5 19.4639 7.22222 17.559 8.66667 15.9521C10.1111 14.3451 11.8986 13.3972 14.0292 13.1083C14.1375 11.2667 14.8778 9.70486 16.25 8.42292C17.6222 7.14097 19.2472 6.5 21.125 6.5C21.5944 6.5 22.0549 6.55417 22.5063 6.6625C22.9576 6.77083 23.4 6.91528 23.8333 7.09583V44.9583C23.4 45.1389 22.9576 45.2743 22.5063 45.3646C22.0549 45.4549 21.5944 45.5 21.125 45.5Z" fill="var(--fill-0, #111111)"/>
</g>
</g>
</svg>
