<svg preserveAspectRatio="none" width="100%" height="100%" overflow="visible" style="display: block;" viewBox="0 0 52 52" fill="none" xmlns="http://www.w3.org/2000/svg">
<g id="cached">
<mask id="mask0_0_10" style="mask-type:alpha" maskUnits="userSpaceOnUse" x="0" y="0" width="52" height="52">
<rect id="Bounding box" width="52" height="52" fill="var(--fill-0, #D9D9D9)"/>
</mask>
<g mask="url(#mask0_0_10)">
<path id="cached_2" d="M26.1083 43.3333C21.2694 43.3333 17.1528 41.6542 13.7583 38.2958C10.3639 34.9375 8.66667 30.8389 8.66667 26V25.6208L5.2 29.0875L2.16667 26.0542L10.8333 17.3875L19.5 26.0542L16.4667 29.0875L13 25.6208V26C13 29.6111 14.2729 32.6806 16.8188 35.2083C19.3646 37.7361 22.4611 39 26.1083 39C27.0472 39 27.9681 38.8917 28.8708 38.675C29.7736 38.4583 30.6583 38.1333 31.525 37.7L34.775 40.95C33.4028 41.7444 31.9944 42.3403 30.55 42.7375C29.1056 43.1347 27.625 43.3333 26.1083 43.3333ZM41.1667 34.6125L32.5 25.9458L35.5333 22.9125L39 26.3792V26C39 22.3889 37.7271 19.3194 35.1813 16.7917C32.6354 14.2639 29.5389 13 25.8917 13C24.9528 13 24.0319 13.1083 23.1292 13.325C22.2264 13.5417 21.3417 13.8667 20.475 14.3L17.225 11.05C18.5972 10.2556 20.0056 9.65972 21.45 9.2625C22.8944 8.86528 24.375 8.66667 25.8917 8.66667C30.7306 8.66667 34.8472 10.3458 38.2417 13.7042C41.6361 17.0625 43.3333 21.1611 43.3333 26V26.3792L46.8 22.9125L49.8333 25.9458L41.1667 34.6125Z" fill="var(--fill-0, #111111)"/>
</g>
</g>
</svg>
