<svg preserveAspectRatio="none" width="100%" height="100%" overflow="visible" style="display: block;" viewBox="0 0 52 52" fill="none" xmlns="http://www.w3.org/2000/svg">
<g id="person_heart">
<mask id="mask0_0_4" style="mask-type:alpha" maskUnits="userSpaceOnUse" x="0" y="0" width="52" height="52">
<rect id="Bounding box" width="52" height="52" fill="var(--fill-0, #D9D9D9)"/>
</mask>
<g mask="url(#mask0_0_4)">
<path id="person_heart_2" d="M26 26C23.6167 26 21.5764 25.1514 19.8792 23.4542C18.1819 21.7569 17.3333 19.7167 17.3333 17.3333C17.3333 14.95 18.1819 12.9097 19.8792 11.2125C21.5764 9.51528 23.6167 8.66667 26 8.66667C28.3833 8.66667 30.4236 9.51528 32.1208 11.2125C33.8181 12.9097 34.6667 14.95 34.6667 17.3333C34.6667 19.7167 33.8181 21.7569 32.1208 23.4542C30.4236 25.1514 28.3833 26 26 26ZM8.66667 43.3333V37.2667C8.66667 36.0389 8.98264 34.9104 9.61458 33.8813C10.2465 32.8521 11.0861 32.0667 12.1333 31.525C14.3722 30.4056 16.6472 29.566 18.9583 29.0063C21.2694 28.4465 23.6167 28.1667 26 28.1667H26.7583C26.3611 28.8528 26.0632 29.566 25.8646 30.3063C25.666 31.0465 25.5667 31.8139 25.5667 32.6083C25.5667 33.6917 25.7563 34.766 26.1354 35.8313C26.5146 36.8965 27.1736 37.8986 28.1125 38.8375L32.6625 43.3333H8.66667ZM38.7833 43.3333L31.2 35.75C30.7306 35.2806 30.3965 34.775 30.1979 34.2333C29.9993 33.6917 29.9 33.15 29.9 32.6083C29.9 31.4528 30.3153 30.4236 31.1458 29.5208C31.9764 28.6181 33.0417 28.1667 34.3417 28.1667C35.3528 28.1667 36.1472 28.4014 36.725 28.8708C37.3028 29.3403 37.9889 29.9722 38.7833 30.7667C39.5056 30.0444 40.1646 29.4306 40.7604 28.925C41.3563 28.4194 42.1778 28.1667 43.225 28.1667C44.5611 28.1667 45.6354 28.6271 46.4479 29.5479C47.2604 30.4688 47.6667 31.5069 47.6667 32.6625C47.6667 33.2042 47.5583 33.7458 47.3417 34.2875C47.125 34.8292 46.8 35.3167 46.3667 35.75L38.7833 43.3333Z" fill="var(--fill-0, #111111)"/>
</g>
</g>
</svg>
