<svg preserveAspectRatio="none" width="100%" height="100%" overflow="visible" style="display: block;" viewBox="0 0 656.328 546.116" fill="none" xmlns="http://www.w3.org/2000/svg">
<path id="US-NY" d="M80.0033 0.216903L79.9051 0.167824L80.0033 0.216903ZM502.778 289.5L502.582 299.027L502.386 308.554L502.19 318.08L501.945 327.607L501.7 337.133L501.455 346.66L501.21 356.186L500.965 365.713L503.71 367.775L505.621 377.989L507.533 388.203L509.444 398.417L511.356 408.632L513.268 418.846L515.18 429.06L517.091 439.274L519.003 449.488L522.434 452.974L525.865 456.461L523.365 459.112L519.444 463.237L515.278 467.657L509.837 473.402L514.444 477.871L520.229 483.518L517.631 487.103L511.307 498.545L506.749 504.978L502.386 507.777L500.475 512.638L497.926 516.125L498.759 506.107L500.18 497.464L499.2 481.652L495.327 469.621L490.622 465.447L486.21 462.992L493.367 474.041L497.68 488.674L497.729 489.116L488.857 486.219L479.74 483.322L470.623 480.425L461.505 477.527L452.388 474.581L443.32 471.635L434.252 468.688L425.184 465.742L422.537 462.157L418.91 459.751L403.371 457.787L398.862 455.086L394.45 451.059L390.774 445.707L388.126 439.765L386.901 434.805L386.656 429.06L382.538 426.162L381.656 422.725L379.009 420.908L368.765 418.944L364.647 413.788L357.246 409.712L346.314 412.216L335.384 414.721L324.453 417.176L313.522 419.631L302.591 422.087L291.612 424.542L280.632 426.948L269.652 429.354L258.671 431.711L247.692 434.068L236.712 436.426L225.732 438.783L214.752 441.091L203.772 443.399L192.792 445.657L181.812 447.916L170.833 450.175L159.853 452.385L148.824 454.595L137.844 456.804L126.815 458.965L115.786 461.126L104.757 463.287L93.7284 465.398L82.6995 467.51L71.6706 469.621L60.6417 471.684L49.6127 473.746L38.5838 475.809L27.5549 477.822L16.526 479.835L5.4971 481.849L2.89903 467.362L0.300969 452.876L0.202839 452.287L4.41826 448.8L17.898 436.229L24.2215 427.734L31.1822 420.368L38.7304 414.082L44.2694 406.815L47.8482 398.516L52.2593 392.034L57.5535 387.32L60.0044 382.949L59.71 378.922L57.6026 373.766L53.681 367.53L52.3083 362.275L53.4847 358.052L53.4356 355.352L52.1127 354.222L38.9758 352.749L36.0348 334.138L35.7895 333.647L36.3777 333.303L63.3373 319.651L80.9349 313.317L102.895 308.21L130.05 306.933L141.03 308.504L148.48 311.893L156.226 311.598L164.264 307.67L175.833 304.478L190.979 302.072L199.213 301.482L200.537 302.71L201.468 302.072L202.008 299.518L205.488 296.081L215.879 289.795L217.546 290.286L219.409 287.831L221.467 282.429L226.075 275.947L233.134 268.434L239.996 263.818L246.662 262.099L250.829 259.693L252.544 256.599L252.74 254.144L251.417 252.376L251.319 250.117L251.466 248.939L250.927 248.104L249.701 246.434L247.005 237.203L244.751 233.127L242.251 230.279L239.457 228.707L239.261 226.448L242.692 222.863L242.937 225.466L244.162 226.006L245.78 224.435L248.819 217.855V215.645L251.27 212.797L252.691 208.967L250.191 209.016L244.751 211.274L243.231 210.538L245.192 205.382L244.064 202.926L242.888 202.043H240.927L235.388 207.444L233.525 208.23L232.791 206.217L228.477 202.288L235.486 192.074L261.515 162.168L263.868 157.945L264.309 154.557L262.887 152.004L261.858 151.512L262.152 150.727L285.239 114.437L298.964 96.9066L311.071 86.1033L320.777 80.0142L328.031 78.8356L331.953 77.3625L335.433 76.5276L353.03 72.2554L384.45 64.4967L415.87 56.5906L434.399 51.8764L436.752 58.8004L437.291 67.5413L440.918 76.2821L443.957 95.679L452.437 109.134L453.81 119.201L456.751 129.66L456.555 132.459L454.349 139.482L453.663 146.013L453.908 152.347L454.986 156.227L462.584 172.677L465.133 180.141L466.211 184.61L466.947 199.587L467.78 203.712L468.907 204.645L469.937 204.4L472.044 199.145L473.319 198.114L475.476 198.753L481.75 204.301L484.593 216.382L486.651 225.171L488.956 234.944L492.387 249.626L494.886 260.38L497.19 270.153L498.955 277.666L499.298 283.411L502.778 289.5ZM242.79 179.994L240.584 181.418L239.702 180.289L239.849 179.012L241.515 177.097L244.849 176.36L244.702 177.637L242.79 179.994ZM238.035 213.288L236.957 213.877L236.565 211.569L237.398 209.801L239.506 208.672L239.702 209.85L238.035 213.288ZM51.2792 359.918L49.5637 364.043L47.1619 364.141L45.2011 363.258L44.1719 361.048L44.0247 358.052L45.8383 356.383L51.6711 356.432L52.0636 357.561L51.2792 359.918ZM609.979 461.077L606.107 469.425L611.45 468.737L615.322 465.545L618.41 460.389L626.645 452.336L634.292 447.72L636.742 446.541L641.693 449.34L648.654 444.135L656.203 440.207L626.155 467.117L619.537 470.996L610.715 478.951L602.038 485.188L595.421 488.38L564.148 510.428L561.452 511.41L558.168 510.919L531.258 524.915L519.689 528.647L509.543 533.655L516.111 526.24L515.768 524.178L513.464 523.049L509.346 524.571L506.405 531.249L499.935 534.834L497.043 529.089L498.219 523.785L500.229 518.531L505.327 509.79L514.052 502.915L518.072 497.808L522.385 500.312L521.993 495.549L523.953 492.259L526.502 490.098L533.414 488.331L536.943 486.661L539.247 484.451L541.943 483.469L550.031 483.616L557.286 481.112L562.531 476.742L568.462 474.188L584.686 469.277L600.421 462.943L605.96 457.492L616.842 443.448L623.9 438.439L614.881 453.76L609.979 461.077ZM487.583 544.459L483.858 545.834L485.23 534.736L491.161 528.352L493.955 528.696L494.936 532.231L494.69 535.571L491.112 541.463L487.583 544.459Z" fill="var(--fill-0, #CCCCCC)" fill-opacity="0.1" stroke="var(--stroke-0, white)" stroke-width="0.375286"/>
</svg>
